<svg xmlns="http://www.w3.org/2000/svg" width="900" height="170" viewBox="0 0 900 170" font-family="'Courier New',Courier,monospace" shape-rendering="crispEdges">
<style>
  .p0 { animation: hop 2.5s ease-in-out infinite; }
  .p1 { animation: hop 2.5s ease-in-out infinite .5s; }
  .p2 { animation: hop 2.5s ease-in-out infinite 1s; }
  .p3 { animation: hop 2.5s ease-in-out infinite 1.5s; }
  .p4 { animation: hop 2.5s ease-in-out infinite 2s; }
  .dot { animation: dots 1.5s steps(2, jump-none) infinite; }
  @keyframes hop  { 0%,100% {transform:translateY(0)} 12% {transform:translateY(-5px)} 24% {transform:translateY(0)} }
  @keyframes dots { 0%,49% {opacity:.25} 50%,100% {opacity:.9} }
  text { font-family:'Courier New',Courier,monospace; }
</style>
<rect width="900" height="170" fill="#0d1117" rx="10"/><rect x="130" y="60" width="7" height="4" fill="#006d32"/><rect x="144" y="60" width="7" height="4" fill="#006d32" class="dot"/><rect x="158" y="60" width="7" height="4" fill="#006d32"/><rect x="172" y="60" width="7" height="4" fill="#006d32" class="dot"/><rect x="186" y="60" width="7" height="4" fill="#006d32"/><rect x="200" y="60" width="7" height="4" fill="#006d32" class="dot"/><rect x="214" y="60" width="7" height="4" fill="#006d32"/><rect x="236" y="56" width="4" height="12" fill="#26a641"/><rect x="240" y="60" width="4" height="4" fill="#26a641"/><rect x="306" y="60" width="7" height="4" fill="#006d32"/><rect x="320" y="60" width="7" height="4" fill="#006d32" class="dot"/><rect x="334" y="60" width="7" height="4" fill="#006d32"/><rect x="348" y="60" width="7" height="4" fill="#006d32" class="dot"/><rect x="362" y="60" width="7" height="4" fill="#006d32"/><rect x="376" y="60" width="7" height="4" fill="#006d32" class="dot"/><rect x="390" y="60" width="7" height="4" fill="#006d32"/><rect x="412" y="56" width="4" height="12" fill="#26a641"/><rect x="416" y="60" width="4" height="4" fill="#26a641"/><rect x="482" y="60" width="7" height="4" fill="#006d32"/><rect x="496" y="60" width="7" height="4" fill="#006d32" class="dot"/><rect x="510" y="60" width="7" height="4" fill="#006d32"/><rect x="524" y="60" width="7" height="4" fill="#006d32" class="dot"/><rect x="538" y="60" width="7" height="4" fill="#006d32"/><rect x="552" y="60" width="7" height="4" fill="#006d32" class="dot"/><rect x="566" y="60" width="7" height="4" fill="#006d32"/><rect x="588" y="56" width="4" height="12" fill="#26a641"/><rect x="592" y="60" width="4" height="4" fill="#26a641"/><rect x="658" y="60" width="7" height="4" fill="#006d32"/><rect x="672" y="60" width="7" height="4" fill="#006d32" class="dot"/><rect x="686" y="60" width="7" height="4" fill="#006d32"/><rect x="700" y="60" width="7" height="4" fill="#006d32" class="dot"/><rect x="714" y="60" width="7" height="4" fill="#006d32"/><rect x="728" y="60" width="7" height="4" fill="#006d32" class="dot"/><rect x="742" y="60" width="7" height="4" fill="#006d32"/><rect x="764" y="56" width="4" height="12" fill="#26a641"/><rect x="768" y="60" width="4" height="4" fill="#26a641"/><rect x="-5" y="55" width="12" height="12" fill="#39d353" rx="2">
  <animateMotion dur="6s" repeatCount="indefinite" path="M 96 0 L 800 0" keyPoints="0;1" keyTimes="0;1" calcMode="linear"/>
</rect><g class="p0"><rect x="74" y="46" width="4" height="4" fill="#30363d"/><rect x="78" y="46" width="4" height="4" fill="#30363d"/><rect x="82" y="46" width="4" height="4" fill="#30363d"/><rect x="86" y="46" width="4" height="4" fill="#30363d"/><rect x="90" y="46" width="4" height="4" fill="#30363d"/><rect x="94" y="46" width="4" height="4" fill="#30363d"/><rect x="98" y="46" width="4" height="4" fill="#30363d"/><rect x="102" y="46" width="4" height="4" fill="#30363d"/><rect x="106" y="46" width="4" height="4" fill="#30363d"/><rect x="110" y="46" width="4" height="4" fill="#30363d"/><rect x="114" y="46" width="4" height="4" fill="#30363d"/><rect x="74" y="50" width="4" height="4" fill="#30363d"/><rect x="78" y="50" width="4" height="4" fill="#f85149"/><rect x="82" y="50" width="4" height="4" fill="#d29922"/><rect x="86" y="50" width="4" height="4" fill="#39d353"/><rect x="90" y="50" width="4" height="4" fill="#161b22"/><rect x="94" y="50" width="4" height="4" fill="#161b22"/><rect x="98" y="50" width="4" height="4" fill="#161b22"/><rect x="102" y="50" width="4" height="4" fill="#161b22"/><rect x="106" y="50" width="4" height="4" fill="#161b22"/><rect x="110" y="50" width="4" height="4" fill="#161b22"/><rect x="114" y="50" width="4" height="4" fill="#30363d"/><rect x="74" y="54" width="4" height="4" fill="#30363d"/><rect x="78" y="54" width="4" height="4" fill="#161b22"/><rect x="82" y="54" width="4" height="4" fill="#161b22"/><rect x="86" y="54" width="4" height="4" fill="#161b22"/><rect x="90" y="54" width="4" height="4" fill="#161b22"/><rect x="94" y="54" width="4" height="4" fill="#161b22"/><rect x="98" y="54" width="4" height="4" fill="#161b22"/><rect x="102" y="54" width="4" height="4" fill="#161b22"/><rect x="106" y="54" width="4" height="4" fill="#161b22"/><rect x="110" y="54" width="4" height="4" fill="#161b22"/><rect x="114" y="54" width="4" height="4" fill="#30363d"/><rect x="74" y="58" width="4" height="4" fill="#30363d"/><rect x="78" y="58" width="4" height="4" fill="#161b22"/><rect x="86" y="58" width="4" height="4" fill="#26a641"/><rect x="94" y="58" width="4" height="4" fill="#26a641"/><rect x="102" y="58" width="4" height="4" fill="#26a641"/><rect x="106" y="58" width="4" height="4" fill="#161b22"/><rect x="110" y="58" width="4" height="4" fill="#161b22"/><rect x="114" y="58" width="4" height="4" fill="#30363d"/><rect x="74" y="62" width="4" height="4" fill="#30363d"/><rect x="78" y="62" width="4" height="4" fill="#161b22"/><rect x="82" y="62" width="4" height="4" fill="#26a641"/><rect x="106" y="62" width="4" height="4" fill="#26a641"/><rect x="110" y="62" width="4" height="4" fill="#161b22"/><rect x="114" y="62" width="4" height="4" fill="#30363d"/><rect x="74" y="66" width="4" height="4" fill="#30363d"/><rect x="78" y="66" width="4" height="4" fill="#161b22"/><rect x="86" y="66" width="4" height="4" fill="#26a641"/><rect x="94" y="66" width="4" height="4" fill="#26a641"/><rect x="102" y="66" width="4" height="4" fill="#26a641"/><rect x="106" y="66" width="4" height="4" fill="#161b22"/><rect x="110" y="66" width="4" height="4" fill="#161b22"/><rect x="114" y="66" width="4" height="4" fill="#30363d"/><rect x="74" y="70" width="4" height="4" fill="#30363d"/><rect x="78" y="70" width="4" height="4" fill="#161b22"/><rect x="82" y="70" width="4" height="4" fill="#161b22"/><rect x="86" y="70" width="4" height="4" fill="#161b22"/><rect x="90" y="70" width="4" height="4" fill="#161b22"/><rect x="94" y="70" width="4" height="4" fill="#161b22"/><rect x="98" y="70" width="4" height="4" fill="#161b22"/><rect x="102" y="70" width="4" height="4" fill="#161b22"/><rect x="106" y="70" width="4" height="4" fill="#161b22"/><rect x="110" y="70" width="4" height="4" fill="#161b22"/><rect x="114" y="70" width="4" height="4" fill="#30363d"/><rect x="74" y="74" width="4" height="4" fill="#30363d"/><rect x="78" y="74" width="4" height="4" fill="#30363d"/><rect x="82" y="74" width="4" height="4" fill="#30363d"/><rect x="86" y="74" width="4" height="4" fill="#30363d"/><rect x="90" y="74" width="4" height="4" fill="#30363d"/><rect x="94" y="74" width="4" height="4" fill="#30363d"/><rect x="98" y="74" width="4" height="4" fill="#30363d"/><rect x="102" y="74" width="4" height="4" fill="#30363d"/><rect x="106" y="74" width="4" height="4" fill="#30363d"/><rect x="110" y="74" width="4" height="4" fill="#30363d"/><rect x="114" y="74" width="4" height="4" fill="#30363d"/></g><text x="96" y="110" font-size="13" font-weight="bold" fill="#e6edf3" text-anchor="middle" letter-spacing="1">WRITE</text><text x="96" y="128" font-size="11" fill="#8b949e" text-anchor="middle">python · ts</text><g class="p1"><rect x="262" y="44" width="4" height="4" fill="#26a641"/><rect x="266" y="44" width="4" height="4" fill="#26a641"/><rect x="274" y="44" width="4" height="4" fill="#26a641"/><rect x="278" y="44" width="4" height="4" fill="#26a641"/><rect x="258" y="48" width="4" height="4" fill="#26a641"/><rect x="262" y="48" width="4" height="4" fill="#26a641"/><rect x="266" y="48" width="4" height="4" fill="#26a641"/><rect x="270" y="48" width="4" height="4" fill="#26a641"/><rect x="274" y="48" width="4" height="4" fill="#26a641"/><rect x="278" y="48" width="4" height="4" fill="#26a641"/><rect x="282" y="48" width="4" height="4" fill="#26a641"/><rect x="254" y="52" width="4" height="4" fill="#26a641"/><rect x="258" y="52" width="4" height="4" fill="#26a641"/><rect x="262" y="52" width="4" height="4" fill="#26a641"/><rect x="266" y="52" width="4" height="4" fill="#26a641"/><rect x="270" y="52" width="4" height="4" fill="#26a641"/><rect x="274" y="52" width="4" height="4" fill="#26a641"/><rect x="278" y="52" width="4" height="4" fill="#26a641"/><rect x="282" y="52" width="4" height="4" fill="#26a641"/><rect x="286" y="52" width="4" height="4" fill="#26a641"/><rect x="250" y="56" width="4" height="4" fill="#26a641"/><rect x="254" y="56" width="4" height="4" fill="#26a641"/><rect x="258" y="56" width="4" height="4" fill="#26a641"/><rect x="262" y="56" width="4" height="4" fill="#26a641"/><rect x="278" y="56" width="4" height="4" fill="#26a641"/><rect x="282" y="56" width="4" height="4" fill="#26a641"/><rect x="286" y="56" width="4" height="4" fill="#26a641"/><rect x="290" y="56" width="4" height="4" fill="#26a641"/><rect x="254" y="60" width="4" height="4" fill="#26a641"/><rect x="258" y="60" width="4" height="4" fill="#26a641"/><rect x="262" y="60" width="4" height="4" fill="#26a641"/><rect x="278" y="60" width="4" height="4" fill="#26a641"/><rect x="282" y="60" width="4" height="4" fill="#26a641"/><rect x="286" y="60" width="4" height="4" fill="#26a641"/><rect x="250" y="64" width="4" height="4" fill="#26a641"/><rect x="254" y="64" width="4" height="4" fill="#26a641"/><rect x="258" y="64" width="4" height="4" fill="#26a641"/><rect x="262" y="64" width="4" height="4" fill="#26a641"/><rect x="278" y="64" width="4" height="4" fill="#26a641"/><rect x="282" y="64" width="4" height="4" fill="#26a641"/><rect x="286" y="64" width="4" height="4" fill="#26a641"/><rect x="290" y="64" width="4" height="4" fill="#26a641"/><rect x="254" y="68" width="4" height="4" fill="#26a641"/><rect x="258" y="68" width="4" height="4" fill="#26a641"/><rect x="262" y="68" width="4" height="4" fill="#26a641"/><rect x="266" y="68" width="4" height="4" fill="#26a641"/><rect x="270" y="68" width="4" height="4" fill="#26a641"/><rect x="274" y="68" width="4" height="4" fill="#26a641"/><rect x="278" y="68" width="4" height="4" fill="#26a641"/><rect x="282" y="68" width="4" height="4" fill="#26a641"/><rect x="286" y="68" width="4" height="4" fill="#26a641"/><rect x="258" y="72" width="4" height="4" fill="#26a641"/><rect x="262" y="72" width="4" height="4" fill="#26a641"/><rect x="266" y="72" width="4" height="4" fill="#26a641"/><rect x="270" y="72" width="4" height="4" fill="#26a641"/><rect x="274" y="72" width="4" height="4" fill="#26a641"/><rect x="278" y="72" width="4" height="4" fill="#26a641"/><rect x="282" y="72" width="4" height="4" fill="#26a641"/><rect x="262" y="76" width="4" height="4" fill="#26a641"/><rect x="266" y="76" width="4" height="4" fill="#26a641"/><rect x="274" y="76" width="4" height="4" fill="#26a641"/><rect x="278" y="76" width="4" height="4" fill="#26a641"/></g><text x="272" y="110" font-size="13" font-weight="bold" fill="#e6edf3" text-anchor="middle" letter-spacing="1">TEST+BUILD</text><text x="272" y="128" font-size="11" fill="#8b949e" text-anchor="middle">ci gates</text><g class="p2"><rect x="426" y="44" width="4" height="4" fill="#30363d"/><rect x="430" y="44" width="4" height="4" fill="#30363d"/><rect x="434" y="44" width="4" height="4" fill="#30363d"/><rect x="438" y="44" width="4" height="4" fill="#30363d"/><rect x="442" y="44" width="4" height="4" fill="#30363d"/><rect x="446" y="44" width="4" height="4" fill="#30363d"/><rect x="450" y="44" width="4" height="4" fill="#30363d"/><rect x="454" y="44" width="4" height="4" fill="#30363d"/><rect x="458" y="44" width="4" height="4" fill="#30363d"/><rect x="462" y="44" width="4" height="4" fill="#30363d"/><rect x="466" y="44" width="4" height="4" fill="#30363d"/><rect x="426" y="48" width="4" height="4" fill="#30363d"/><rect x="430" y="48" width="4" height="4" fill="#1c2128"/><rect x="434" y="48" width="4" height="4" fill="#1c2128"/><rect x="438" y="48" width="4" height="4" fill="#1c2128"/><rect x="442" y="48" width="4" height="4" fill="#1c2128"/><rect x="446" y="48" width="4" height="4" fill="#1c2128"/><rect x="450" y="48" width="4" height="4" fill="#1c2128"/><rect x="454" y="48" width="4" height="4" fill="#1c2128"/><rect x="458" y="48" width="4" height="4" fill="#1c2128"/><rect x="462" y="48" width="4" height="4" fill="#1c2128"/><rect x="466" y="48" width="4" height="4" fill="#30363d"/><rect x="426" y="52" width="4" height="4" fill="#30363d"/><rect x="430" y="52" width="4" height="4" fill="#30363d"/><rect x="434" y="52" width="4" height="4" fill="#30363d"/><rect x="438" y="52" width="4" height="4" fill="#30363d"/><rect x="442" y="52" width="4" height="4" fill="#30363d"/><rect x="446" y="52" width="4" height="4" fill="#30363d"/><rect x="450" y="52" width="4" height="4" fill="#30363d"/><rect x="454" y="52" width="4" height="4" fill="#30363d"/><rect x="458" y="52" width="4" height="4" fill="#30363d"/><rect x="462" y="52" width="4" height="4" fill="#30363d"/><rect x="466" y="52" width="4" height="4" fill="#30363d"/><rect x="426" y="56" width="4" height="4" fill="#30363d"/><rect x="430" y="56" width="4" height="4" fill="#1c2128"/><rect x="434" y="56" width="4" height="4" fill="#1c2128"/><rect x="438" y="56" width="4" height="4" fill="#1c2128"/><rect x="442" y="56" width="4" height="4" fill="#1c2128"/><rect x="446" y="56" width="4" height="4" fill="#30363d"/><rect x="450" y="56" width="4" height="4" fill="#1c2128"/><rect x="454" y="56" width="4" height="4" fill="#1c2128"/><rect x="458" y="56" width="4" height="4" fill="#1c2128"/><rect x="462" y="56" width="4" height="4" fill="#1c2128"/><rect x="466" y="56" width="4" height="4" fill="#30363d"/><rect x="426" y="60" width="4" height="4" fill="#30363d"/><rect x="430" y="60" width="4" height="4" fill="#30363d"/><rect x="434" y="60" width="4" height="4" fill="#30363d"/><rect x="438" y="60" width="4" height="4" fill="#30363d"/><rect x="442" y="60" width="4" height="4" fill="#30363d"/><rect x="446" y="60" width="4" height="4" fill="#30363d"/><rect x="450" y="60" width="4" height="4" fill="#30363d"/><rect x="454" y="60" width="4" height="4" fill="#30363d"/><rect x="458" y="60" width="4" height="4" fill="#30363d"/><rect x="462" y="60" width="4" height="4" fill="#30363d"/><rect x="466" y="60" width="4" height="4" fill="#30363d"/><rect x="426" y="64" width="4" height="4" fill="#30363d"/><rect x="430" y="64" width="4" height="4" fill="#1c2128"/><rect x="434" y="64" width="4" height="4" fill="#1c2128"/><rect x="438" y="64" width="4" height="4" fill="#30363d"/><rect x="442" y="64" width="4" height="4" fill="#1c2128"/><rect x="446" y="64" width="4" height="4" fill="#1c2128"/><rect x="450" y="64" width="4" height="4" fill="#1c2128"/><rect x="454" y="64" width="4" height="4" fill="#30363d"/><rect x="458" y="64" width="4" height="4" fill="#1c2128"/><rect x="462" y="64" width="4" height="4" fill="#1c2128"/><rect x="466" y="64" width="4" height="4" fill="#30363d"/><rect x="426" y="68" width="4" height="4" fill="#30363d"/><rect x="430" y="68" width="4" height="4" fill="#30363d"/><rect x="434" y="68" width="4" height="4" fill="#30363d"/><rect x="438" y="68" width="4" height="4" fill="#30363d"/><rect x="442" y="68" width="4" height="4" fill="#30363d"/><rect x="446" y="68" width="4" height="4" fill="#30363d"/><rect x="450" y="68" width="4" height="4" fill="#30363d"/><rect x="454" y="68" width="4" height="4" fill="#30363d"/><rect x="458" y="68" width="4" height="4" fill="#30363d"/><rect x="462" y="68" width="4" height="4" fill="#30363d"/><rect x="466" y="68" width="4" height="4" fill="#30363d"/><rect x="426" y="72" width="4" height="4" fill="#30363d"/><rect x="430" y="72" width="4" height="4" fill="#1c2128"/><rect x="434" y="72" width="4" height="4" fill="#1c2128"/><rect x="438" y="72" width="4" height="4" fill="#1c2128"/><rect x="442" y="72" width="4" height="4" fill="#1c2128"/><rect x="446" y="72" width="4" height="4" fill="#1c2128"/><rect x="450" y="72" width="4" height="4" fill="#1c2128"/><rect x="454" y="72" width="4" height="4" fill="#1c2128"/><rect x="458" y="72" width="4" height="4" fill="#1c2128"/><rect x="462" y="72" width="4" height="4" fill="#1c2128"/><rect x="466" y="72" width="4" height="4" fill="#30363d"/><rect x="426" y="76" width="4" height="4" fill="#30363d"/><rect x="430" y="76" width="4" height="4" fill="#30363d"/><rect x="434" y="76" width="4" height="4" fill="#30363d"/><rect x="438" y="76" width="4" height="4" fill="#30363d"/><rect x="442" y="76" width="4" height="4" fill="#30363d"/><rect x="446" y="76" width="4" height="4" fill="#30363d"/><rect x="450" y="76" width="4" height="4" fill="#30363d"/><rect x="454" y="76" width="4" height="4" fill="#30363d"/><rect x="458" y="76" width="4" height="4" fill="#30363d"/><rect x="462" y="76" width="4" height="4" fill="#30363d"/><rect x="466" y="76" width="4" height="4" fill="#30363d"/></g><text x="448" y="110" font-size="13" font-weight="bold" fill="#e6edf3" text-anchor="middle" letter-spacing="1">CONTAINERISE</text><text x="448" y="128" font-size="11" fill="#8b949e" text-anchor="middle">docker</text><g class="p3"><rect x="618" y="50" width="4" height="4" fill="#58a6ff"/><rect x="622" y="50" width="4" height="4" fill="#58a6ff"/><rect x="626" y="50" width="4" height="4" fill="#58a6ff"/><rect x="610" y="54" width="4" height="4" fill="#58a6ff"/><rect x="614" y="54" width="4" height="4" fill="#58a6ff"/><rect x="618" y="54" width="4" height="4" fill="#58a6ff"/><rect x="622" y="54" width="4" height="4" fill="#58a6ff"/><rect x="626" y="54" width="4" height="4" fill="#58a6ff"/><rect x="630" y="54" width="4" height="4" fill="#58a6ff"/><rect x="634" y="54" width="4" height="4" fill="#58a6ff"/><rect x="606" y="58" width="4" height="4" fill="#58a6ff"/><rect x="610" y="58" width="4" height="4" fill="#58a6ff"/><rect x="614" y="58" width="4" height="4" fill="#58a6ff"/><rect x="618" y="58" width="4" height="4" fill="#58a6ff"/><rect x="622" y="58" width="4" height="4" fill="#58a6ff"/><rect x="626" y="58" width="4" height="4" fill="#58a6ff"/><rect x="630" y="58" width="4" height="4" fill="#58a6ff"/><rect x="634" y="58" width="4" height="4" fill="#58a6ff"/><rect x="638" y="58" width="4" height="4" fill="#58a6ff"/><rect x="602" y="62" width="4" height="4" fill="#58a6ff"/><rect x="606" y="62" width="4" height="4" fill="#58a6ff"/><rect x="610" y="62" width="4" height="4" fill="#58a6ff"/><rect x="614" y="62" width="4" height="4" fill="#58a6ff"/><rect x="618" y="62" width="4" height="4" fill="#58a6ff"/><rect x="622" y="62" width="4" height="4" fill="#58a6ff"/><rect x="626" y="62" width="4" height="4" fill="#58a6ff"/><rect x="630" y="62" width="4" height="4" fill="#58a6ff"/><rect x="634" y="62" width="4" height="4" fill="#58a6ff"/><rect x="638" y="62" width="4" height="4" fill="#58a6ff"/><rect x="642" y="62" width="4" height="4" fill="#58a6ff"/><rect x="602" y="66" width="4" height="4" fill="#58a6ff"/><rect x="606" y="66" width="4" height="4" fill="#58a6ff"/><rect x="610" y="66" width="4" height="4" fill="#58a6ff"/><rect x="614" y="66" width="4" height="4" fill="#58a6ff"/><rect x="618" y="66" width="4" height="4" fill="#58a6ff"/><rect x="622" y="66" width="4" height="4" fill="#58a6ff"/><rect x="626" y="66" width="4" height="4" fill="#58a6ff"/><rect x="630" y="66" width="4" height="4" fill="#58a6ff"/><rect x="634" y="66" width="4" height="4" fill="#58a6ff"/><rect x="638" y="66" width="4" height="4" fill="#58a6ff"/><rect x="642" y="66" width="4" height="4" fill="#58a6ff"/><rect x="606" y="70" width="4" height="4" fill="#58a6ff"/><rect x="610" y="70" width="4" height="4" fill="#58a6ff"/><rect x="614" y="70" width="4" height="4" fill="#58a6ff"/><rect x="618" y="70" width="4" height="4" fill="#58a6ff"/><rect x="622" y="70" width="4" height="4" fill="#58a6ff"/><rect x="626" y="70" width="4" height="4" fill="#58a6ff"/><rect x="630" y="70" width="4" height="4" fill="#58a6ff"/><rect x="634" y="70" width="4" height="4" fill="#58a6ff"/><rect x="638" y="70" width="4" height="4" fill="#58a6ff"/></g><text x="624" y="110" font-size="13" font-weight="bold" fill="#e6edf3" text-anchor="middle" letter-spacing="1">DEPLOY</text><text x="624" y="128" font-size="11" fill="#8b949e" text-anchor="middle">aws</text><g class="p4"><rect x="790" y="48" width="4" height="4" fill="#26a641"/><rect x="794" y="48" width="4" height="4" fill="#26a641"/><rect x="798" y="48" width="4" height="4" fill="#26a641"/><rect x="802" y="48" width="4" height="4" fill="#26a641"/><rect x="806" y="48" width="4" height="4" fill="#26a641"/><rect x="782" y="52" width="4" height="4" fill="#26a641"/><rect x="786" y="52" width="4" height="4" fill="#26a641"/><rect x="790" y="52" width="4" height="4" fill="#161b22"/><rect x="794" y="52" width="4" height="4" fill="#161b22"/><rect x="798" y="52" width="4" height="4" fill="#161b22"/><rect x="802" y="52" width="4" height="4" fill="#161b22"/><rect x="806" y="52" width="4" height="4" fill="#161b22"/><rect x="810" y="52" width="4" height="4" fill="#26a641"/><rect x="814" y="52" width="4" height="4" fill="#26a641"/><rect x="778" y="56" width="4" height="4" fill="#26a641"/><rect x="782" y="56" width="4" height="4" fill="#161b22"/><rect x="786" y="56" width="4" height="4" fill="#161b22"/><rect x="790" y="56" width="4" height="4" fill="#161b22"/><rect x="794" y="56" width="4" height="4" fill="#39d353"/><rect x="798" y="56" width="4" height="4" fill="#39d353"/><rect x="802" y="56" width="4" height="4" fill="#39d353"/><rect x="806" y="56" width="4" height="4" fill="#161b22"/><rect x="810" y="56" width="4" height="4" fill="#161b22"/><rect x="814" y="56" width="4" height="4" fill="#161b22"/><rect x="818" y="56" width="4" height="4" fill="#26a641"/><rect x="778" y="60" width="4" height="4" fill="#26a641"/><rect x="782" y="60" width="4" height="4" fill="#161b22"/><rect x="786" y="60" width="4" height="4" fill="#161b22"/><rect x="790" y="60" width="4" height="4" fill="#39d353"/><rect x="794" y="60" width="4" height="4" fill="#39d353"/><rect x="798" y="60" width="4" height="4" fill="#30363d"/><rect x="802" y="60" width="4" height="4" fill="#39d353"/><rect x="806" y="60" width="4" height="4" fill="#39d353"/><rect x="810" y="60" width="4" height="4" fill="#161b22"/><rect x="814" y="60" width="4" height="4" fill="#161b22"/><rect x="818" y="60" width="4" height="4" fill="#26a641"/><rect x="778" y="64" width="4" height="4" fill="#26a641"/><rect x="782" y="64" width="4" height="4" fill="#161b22"/><rect x="786" y="64" width="4" height="4" fill="#161b22"/><rect x="790" y="64" width="4" height="4" fill="#161b22"/><rect x="794" y="64" width="4" height="4" fill="#39d353"/><rect x="798" y="64" width="4" height="4" fill="#39d353"/><rect x="802" y="64" width="4" height="4" fill="#39d353"/><rect x="806" y="64" width="4" height="4" fill="#161b22"/><rect x="810" y="64" width="4" height="4" fill="#161b22"/><rect x="814" y="64" width="4" height="4" fill="#161b22"/><rect x="818" y="64" width="4" height="4" fill="#26a641"/><rect x="782" y="68" width="4" height="4" fill="#26a641"/><rect x="786" y="68" width="4" height="4" fill="#26a641"/><rect x="790" y="68" width="4" height="4" fill="#161b22"/><rect x="794" y="68" width="4" height="4" fill="#161b22"/><rect x="798" y="68" width="4" height="4" fill="#161b22"/><rect x="802" y="68" width="4" height="4" fill="#161b22"/><rect x="806" y="68" width="4" height="4" fill="#161b22"/><rect x="810" y="68" width="4" height="4" fill="#26a641"/><rect x="814" y="68" width="4" height="4" fill="#26a641"/><rect x="790" y="72" width="4" height="4" fill="#26a641"/><rect x="794" y="72" width="4" height="4" fill="#26a641"/><rect x="798" y="72" width="4" height="4" fill="#26a641"/><rect x="802" y="72" width="4" height="4" fill="#26a641"/><rect x="806" y="72" width="4" height="4" fill="#26a641"/></g><text x="800" y="110" font-size="13" font-weight="bold" fill="#e6edf3" text-anchor="middle" letter-spacing="1">OBSERVE</text><text x="800" y="128" font-size="11" fill="#8b949e" text-anchor="middle">grafana · otel</text><text x="450" y="148" font-size="11" fill="#26a641" text-anchor="middle">◄ ─ ─ ─  alerts &amp; runbooks feed back into the code  ─ ─ ─</text></svg>